<?xml version="1.0" encoding="UTF-8"?>
<svg xmlns="http://www.w3.org/2000/svg" viewBox="0 0 1200 600" role="img" aria-labelledby="title desc">
  <title id="title">Dagupan Abstract Map with Network Nodes</title>
  <desc id="desc">A stylized abstract silhouette shape with 7 nodes connected by lines and a highlighted ledger preview.</desc>

  <!-- Background subtle grid for visual depth -->
  <defs>
    <pattern id="grid" width="40" height="40" patternUnits="userSpaceOnUse">
      <path d="M 40 0 L 0 0 0 40" fill="none" stroke="#e5e7eb" stroke-width="1" />
    </pattern>
    <filter id="softShadow" x="-20%" y="-20%" width="140%" height="140%">
      <feDropShadow dx="0" dy="6" stdDeviation="8" flood-color="#0f766e" flood-opacity="0.15" />
    </filter>
  </defs>

  <rect width="1200" height="600" fill="url(#grid)" opacity="0.35" />

  <!-- Abstract Dagupan silhouette (stylized blob) -->
  <g transform="translate(150,60)">
    <path d="M320,40 C380,60 430,110 452,170 C476,235 470,310 424,360 C375,415 292,438 220,420 C152,403 94,350 70,290 C44,225 54,154 98,105 C145,54 226,21 320,40 Z"
          fill="#dcfce7" stroke="#16a34a" stroke-width="3" filter="url(#softShadow)" />

    <!-- Network lines -->
    <g stroke="#10b981" stroke-width="2" stroke-linecap="round">
      <line x1="260" y1="120" x2="330" y2="90" />
      <line x1="260" y1="120" x2="220" y2="190" />
      <line x1="220" y1="190" x2="170" y2="250" />
      <line x1="220" y1="190" x2="300" y2="220" />
      <line x1="300" y1="220" x2="360" y2="170" />
      <line x1="300" y1="220" x2="280" y2="300" />
    </g>

    <!-- Nodes -->
    <g fill="#059669" stroke="#064e3b" stroke-width="2">
      <circle cx="330" cy="90" r="10" />
      <circle cx="260" cy="120" r="12" />
      <circle cx="220" cy="190" r="10" />
      <circle cx="170" cy="250" r="9" />
      <circle cx="360" cy="170" r="9" />
      <circle cx="300" cy="220" r="11" />
      <circle cx="280" cy="300" r="10" />
    </g>

    <!-- Highlighted node with ledger preview -->
    <g transform="translate(260,120)">
      <circle r="14" fill="#22c55e" stroke="#065f46" stroke-width="3" />
      <!-- Ledger preview window -->
      <g transform="translate(34,-30)" filter="url(#softShadow)">
        <rect width="160" height="96" rx="10" fill="#ffffff" stroke="#16a34a" stroke-width="2" />
        <rect x="0" y="0" width="160" height="24" rx="10" fill="#dcfce7" />
        <circle cx="14" cy="12" r="4" fill="#22c55e" />
        <circle cx="30" cy="12" r="4" fill="#10b981" />
        <circle cx="46" cy="12" r="4" fill="#059669" />
        <!-- lines -->
        <rect x="16" y="40" width="120" height="6" rx="3" fill="#16a34a" opacity="0.85" />
        <rect x="16" y="58" width="96" height="6" rx="3" fill="#10b981" opacity="0.75" />
        <rect x="16" y="76" width="72" height="6" rx="3" fill="#22c55e" opacity="0.75" />
      </g>
    </g>
  </g>

  <!-- Decorative right-side arcs to balance composition at hero widths -->
  <g transform="translate(860,60)" opacity="0.5">
    <path d="M0,40 C60,10 160,10 220,40" fill="none" stroke="#10b981" stroke-width="3" />
    <path d="M0,90 C60,60 160,60 220,90" fill="none" stroke="#34d399" stroke-width="3" />
    <path d="M0,140 C60,110 160,110 220,140" fill="none" stroke="#86efac" stroke-width="3" />
  </g>

  <!-- Maintain clarity at thumbnail sizes -->
  <style>
    @media (max-width: 640px) {
      circle { stroke-width: 1.5; }
    }
  </style>
</svg>



